<svg viewBox="0 -1 484.007 484" xmlns="http://www.w3.org/2000/svg">
    <path d="m248.566406 438.859375.160156-1.015625v-.082031l-2.320312-12.957031-11.277344-2-173.363281-30.5625-15.757813-2.796876-5.519531 31.519532 195.101563 34.480468-2.445313-13.867187zm0 0" fill="#939598"/>
    <path d="m176.648438 167.203125c-.914063-5.082031.730468-10.285156 4.398437-13.917969l-90.558594-15.921875-5.519531 31.519531 15.679688 2.71875 79.199218 14zm0 0" fill="#939598"/>
    <path d="m262.40625 230.003906c3.496094-3.632812 5.039062-8.71875 4.160156-13.679687l-.160156-.800781c.898438 5.183593-.570312 10.492187-4 14.480468zm0 0" fill="#ffffff"/>
    <path d="m246.40625 424.804688-5.839844-33.042969-5.4375 31.042969zm0 0" fill="#ffffff"/>
    <path d="m240.566406 391.761719-21.199218-120.558594c-2.078126-.796875-3.980469-1.992187-5.601563-3.519531l-17.597656 99.519531 17.597656-99.519531c-2.476563-2.316406-4.136719-5.378906-4.71875-8.71875l-6.960937-39.363282c-.898438.15625-1.808594.238282-2.71875.242188-7.746094-.035156-14.367188-5.582031-15.757813-13.199219l-2.800781-15.761719-.960938-5.28125-79.199218-13.917968-4.160157 23.582031-4.167969 23.632813-16.640624 94.535156-9.726563 55.203125-4.1875 23.605469 173.363281 30.5625zm-123.199218-38.460938 22.242187-126.058593zm36.640624 22.703125 27.785157-157.601562zm0 0" fill="#ebbf00"/>
    <path d="m248.886719 438.804688-.160157-.960938-.160156 1.015625zm0 0" fill="#ffffff"/>
    <path d="m287.367188 131.445312-184.71875-32.5625c-5.558594-1.078124-11.320313.140626-15.964844 3.382813-4.640625 3.242187-7.773438 8.226563-8.675782 13.816406-.550781 4.863281.703126 9.761719 3.519532 13.761719 3.03125 4.332031 7.667968 7.269531 12.878906 8.160156l86.640625 15.28125c2.292969-2.398437 5.292969-4 8.5625-4.5625zm0 0" fill="#ffffff"/>
    <path d="m100.648438 171.601562v.082032l79.199218 13.917968zm0 0" fill="#ffffff"/>
    <path d="m265.207031 208.484375 16.402344-2.882813 101.757813-18 15.679687-2.71875-5.519531-31.519531-89.28125 15.761719-44.636719 7.839844zm0 0" fill="#a7a9ac"/>
    <path d="m248.886719 438.804688-.320313.054687v.023437-.023437l-15.421875 2.71875 2.445313 13.867187h.019531-.019531l3.113281 17.644532 204.839844-36.117188-5.558594-31.511718-15.738281 2.773437v.007813zm0 0" fill="#a7a9ac"/>
    <path d="m408.335938 329.433594-16.671876-94.527344-4.167968-23.628906-4.160156-23.585938-101.726563 17.910156-16.402344 2.882813 1.199219 6.878906v.160157l.160156.800781c.878906 4.960937-.664062 10.046875-4.160156 13.679687-1.003906 1.148438-2.195312 2.121094-3.519531 2.878906-.585938.367188-1.203125.6875-1.839844.960938-.261719.121094-.527344.226562-.800781.320312-3.960938 1.472657-8.351563 1.269532-12.160156-.5625-2.105469-.953124-3.964844-2.375-5.4375-4.15625-1.234376-1.390624-2.210938-2.988281-2.882813-4.722656-.320313-.910156-.5625-1.847656-.71875-2.800781l5.519531 31.523437c1.503906 8.675782-4.289062 16.933594-12.957031 18.476563-2.761719.535156-5.617187.285156-8.242187-.71875l21.199218 120.558594 5.839844 33.042969 2.320312 12.957031v.082031l.160157.960938 173.359375-30.570313-4.152344-23.640625zm-141.335938-64.421875 20.800781 118.183593zm35.199219-30.578125 27.808593 157.570312zm42.167969 8.800781 22.230468 126.058594zm0 0" fill="#ffda44"/>
    <path d="m383.367188 187.683594v-.082032l-101.757813 18zm0 0" fill="#ffffff"/>
    <path d="m248.886719 438.804688 173.359375-30.5625v-.007813zm0 0" fill="#ffffff"/>
    <path d="m176.648438 167.203125 3.199218 18.398437.960938 5.28125 2.800781 15.761719c1.390625 7.617188 8.011719 13.164063 15.757813 13.199219.910156-.003906 1.820312-.085938 2.71875-.242188l6.960937 39.363282c.582031 3.339844 2.242187 6.402344 4.71875 8.71875 1.621094 1.527344 3.523437 2.722656 5.601563 3.519531 2.625 1.003906 5.480468 1.253906 8.242187.71875 8.667969-1.542969 14.460937-9.800781 12.957031-18.476563l-5.519531-31.523437c.15625.953125.398437 1.890625.71875 2.800781.671875 1.734375 1.648437 3.332032 2.882813 4.722656 1.472656 1.78125 3.332031 3.203126 5.4375 4.15625 3.808593 1.832032 8.199218 2.035157 12.160156.5625.273437-.09375.539062-.199218.800781-.320312.636719-.273438 1.253906-.59375 1.839844-.960938 1.324219-.757812 2.515625-1.730468 3.519531-2.878906 3.429688-3.988281 4.898438-9.296875 4-14.480468v-.160157l-1.277344-6.878906-5.519531-31.519531 44.636719-7.839844v-.082031l85.363281-15.039063c5.210937-.890625 9.847656-3.828125 12.878906-8.160156 2.816407-4 4.070313-8.898438 3.519531-13.761719-.902343-5.589843-4.035156-10.574219-8.679687-13.816406-4.640625-3.242187-10.402344-4.460937-15.960937-3.382813l-94 16.5625-97.757813 17.277344c-3.269531.5625-6.269531 2.164063-8.5625 4.5625-3.667969 3.632813-5.3125 8.835938-4.398437 13.917969zm0 0" fill="#ffffff"/>
    <path d="m265.128906 208.484375h.078125l-5.597656-31.519531zm0 0" fill="#ffffff"/>
    <path d="m266.40625 215.363281-1.199219-6.878906h-.078125zm0 0" fill="#ffffff"/>
    <path d="m456.078125 231.675781c-3.066406-17.40625-19.664063-29.03125-37.070313-25.960937l-31.480468 5.550781 4.160156 23.617187 23.609375-4.167968c8.703125-1.535156 17.003906 4.28125 18.535156 12.984375l16.664063 94.535156c.746094 4.183594-.203125 8.492187-2.632813 11.972656-2.433593 3.484375-6.152343 5.859375-10.335937 6.597657l-23.601563 4.167968 4.160157 23.597656 31.480468-5.550781c17.402344-3.070312 29.023438-19.667969 25.953125-37.070312zm0 0" fill="#808285"/>
    <path d="m413.925781 360.964844h-.03125l-5.558593-31.53125 9.726562 55.167968.03125-.007812-.007812-.03125zm0 0" fill="#ffffff"/>
    <path d="m391.664062 234.90625h.03125l-.007812-.023438-4.160156-23.617187-.03125.011719zm0 0" fill="#ffffff"/>
    <path d="m391.664062 234.90625 16.671876 94.527344zm0 0" fill="#ffffff"/>
    <path d="m408.335938 329.433594 5.558593 31.53125h.03125l-22.230469-126.058594h-.03125zm0 0" fill="#ffffff"/>
    <path d="m92.328125 218.882812-.007813.023438h.03125l4.167969-23.628906-.03125-.011719v.019531zm0 0" fill="#ffffff"/>
    <path d="m70.085938 344.964844-23.597657-4.160156c-8.703125-1.535157-14.511719-9.835938-12.976562-18.539063l16.664062-94.542969c1.53125-8.703125 9.832031-14.519531 18.535157-12.984375l23.609374 4.167969 4.160157-23.597656-31.480469-5.554688c-17.40625-3.066406-34.003906 8.554688-37.074219 25.960938l-19.4375 110.257812c-3.070312 17.402344 8.546875 34 25.953125 37.070313l31.476563 5.550781zm0 0" fill="#808285"/>
    <path d="m75.679688 313.433594-5.558594 31.53125h-.035156l-4.160157 23.597656-.007812.03125.035156.007812zm0 0" fill="#ffffff"/>
    <path d="m92.351562 218.90625-16.671874 94.527344zm0 0" fill="#ffffff"/>
    <path d="m70.085938 344.964844h.035156l5.558594-31.53125 16.671874-94.527344h-.03125zm0 0" fill="#ffffff"/>
    <path d="m386.007812 24.003906c0 8.835938-7.164062 16-16 16-8.835937 0-16-7.164062-16-16 0-8.835937 7.164063-16 16-16 8.835938 0 16 7.164063 16 16zm0 0" fill="#e6e7e8"/>
    <path d="m322.007812 72.003906c0 13.253906-10.746093 24-24 24-13.253906 0-24-10.746094-24-24s10.746094-24 24-24c13.253907 0 24 10.746094 24 24zm0 0" fill="#ffd422"/>
    <path d="m170.007812 32.003906c0 13.253906-10.746093 24-24 24-13.253906 0-24-10.746094-24-24s10.746094-24 24-24c13.253907 0 24 10.746094 24 24zm0 0" fill="#ffe477"/>
    <path d="m234.007812 72.003906c0 8.835938-7.164062 16-16 16-8.835937 0-16-7.164062-16-16 0-8.835937 7.164063-16 16-16 8.835938 0 16 7.164063 16 16zm0 0" fill="#e6e7e8"/><g fill="#231f20">
    <path d="m300.832031 226.554688c-4.351562.769531-7.257812 4.921874-6.488281 9.273437l27.785156 157.597656c.6875 3.8125 4.007813 6.582031 7.878906 6.578125.46875 0 .9375-.042968 1.398438-.128906 4.351562-.765625 7.253906-4.914062 6.488281-9.261719l-27.78125-157.601562c-.785156-4.34375-4.9375-7.230469-9.28125-6.457031zm0 0"/>
    <path d="m343.007812 235.371094c-4.351562.765625-7.261718 4.914062-6.496093 9.265625l22.230469 126.054687c.675781 3.820313 3.996093 6.605469 7.875 6.609375.464843 0 .929687-.042969 1.390624-.128906 4.351563-.765625 7.261719-4.914063 6.496094-9.265625l-22.230468-126.054688c-.773438-4.347656-4.917969-7.246093-9.265626-6.480468zm0 0"/>
    <path d="m265.609375 257.148438c-4.351563.765624-7.253906 4.914062-6.488281 9.261718l20.796875 118.167969c.675781 3.820313 3.996093 6.605469 7.875 6.609375.464843.003906.929687-.035156 1.390625-.121094 4.347656-.765625 7.253906-4.914062 6.488281-9.261718l-20.800781-118.175782c-.359375-2.09375-1.539063-3.957031-3.28125-5.175781-1.738282-1.214844-3.894532-1.6875-5.980469-1.304687zm0 0"/>
    <path d="m450.960938 386.914062c21.75-3.835937 36.273437-24.582031 32.4375-46.335937l-19.4375-110.292969c-3.855469-21.746094-24.585938-36.261718-46.335938-32.449218l-23.617188 4.167968-1.390624-7.886718 7.789062-1.3125c2.09375-.363282 3.957031-1.546876 5.179688-3.28125 1.21875-1.738282 1.699218-3.890626 1.332031-5.984376l-4.621094-26.398437c2.605469-1.800781 4.878906-4.046875 6.710937-6.632813 3.957032-5.601562 5.714844-12.460937 4.945313-19.273437v-.039063c-.894531-7.460937-4.847656-14.21875-10.921875-18.648437-6.605469-4.914063-14.9375-6.898437-23.046875-5.496094l-92.535156 16.289063-183.433594-32.335938c-8.105469-1.382812-16.425781.605469-23.03125 5.503906-6.082031 4.441407-10.042969 11.214844-10.929687 18.695313-.769532 6.785156.972656 13.613281 4.898437 19.199219 1.84375 2.609375 4.132813 4.875 6.757813 6.695312l-4.625 26.402344c-.375 2.097656.097656 4.261719 1.324218 6.011719 1.222656 1.746093 3.09375 2.929687 5.199219 3.292969l7.789063 1.34375-1.390626 7.855468-23.609374-4.167968c-21.738282-3.769532-42.445313 10.726562-46.335938 32.449218l-19.453125 110.292969c-3.835937 21.753906 10.6875 42.5 32.4375 46.335937l23.617187 4.167969-1.382812 7.875-7.875-1.355469c-2.089844-.371093-4.246094.105469-5.988281 1.324219-1.738281 1.21875-2.921875 3.082031-3.289063 5.171875l-5.519531 31.523438c-.71875 4.320312 2.175781 8.414062 6.484375 9.183594l189.601562 33.503906 2.113282 12.175781c.675781 3.820313 3.992187 6.605469 7.871094 6.605469.46875.003906.9375-.039063 1.398437-.125l204.839844-36.121094c4.351562-.769531 7.253906-4.914062 6.488281-9.265625l-5.597656-31.511719c-.769532-4.351562-4.921875-7.257812-9.273438-6.488281l-7.855468 1.386719-1.390626-7.882813zm-30.554688-173.3125c13.054688-2.296874 25.5 6.421876 27.800781 19.472657l19.449219 110.289062c2.296875 13.0625-6.414062 25.515625-19.472656 27.839844l-23.617188 4.160156-1.382812-7.886719 15.726562-2.769531c13.054688-2.304687 21.769532-14.753906 19.464844-27.808593l-16.664062-94.566407c-2.304688-13.050781-14.75-21.765625-27.800782-19.464843l-15.726562 2.777343-1.390625-7.890625zm-33.375-50.957031 2.761719 15.734375-118.121094 20.824219-2.792969-15.769531zm49.113281 186.285157-15.738281 2.769531-19.4375-110.296875 15.734375-2.773438c4.351563-.765625 8.5 2.140625 9.265625 6.496094l16.671875 94.527344c.367187 2.089844-.109375 4.246094-1.328125 5.984375-1.222656 1.738281-3.082031 2.921875-5.175781 3.285156zm-53.410156-226.15625c3.777344-.664063 7.65625.265624 10.730469 2.558593 2.523437 1.804688 4.1875 4.578125 4.589844 7.65625.328124 2.9375-.433594 5.890625-2.144532 8.304688-1.820312 2.558593-4.585937 4.285156-7.6875 4.796875l-130 22.953125c-4.351562.765625-7.261718 4.914062-6.496094 9.265625l5.519532 31.511718v.039063l1.183594 6.359375c0 .191406.042968.367188.066406.542969.515625 2.859375-.285156 5.796875-2.175782 8-.617187.625-1.328124 1.140625-2.113281 1.53125l-.375.175781-.191406.085938h-.113281c-1.984375.746093-4.1875.644531-6.097656-.277344-1.160157-.558594-2.171876-1.382813-2.957032-2.402344-.515625-.59375-.921875-1.269531-1.210937-2l-.046875-.191406c-.109375-.316406-.195313-.644532-.253906-.976563l-.050782-.261719c-.816406-4.28125-4.910156-7.117187-9.203125-6.382812s-7.210937 4.769531-6.5625 9.078125l.054688.375 5.472656 31.199219c.363281 2.109375-.136719 4.277344-1.382813 6.015625-1.246093 1.738281-3.136718 2.90625-5.25 3.242187-1.046874.167969-2.117187.101563-3.136718-.191406-.226563-.039062-.449219-.089844-.671875-.152344-1.121094-.433594-2.148438-1.082031-3.023438-1.90625-.597656-.554687-1.101562-1.207031-1.488281-1.925781-.386719-.734375-.65625-1.523437-.800781-2.335937l-6.910157-39.25c-.328124-2.382813-1.832031-4.441407-4-5.480469-.832031-.542969-1.792968-.867188-2.785156-.933594-.347656-.089844-.703125-.152344-1.0625-.195313-.433594 0-.867187.035157-1.296875.105469-2.09375.402344-4.261719-.058593-6.011719-1.277343-1.753906-1.214844-2.941406-3.082032-3.300781-5.1875l-6.96875-39.460938c-.433593-2.546875.417969-5.144531 2.28125-6.9375 1.125-1.183594 2.601563-1.972656 4.207031-2.25zm-319.125 212.917968-15.738281-2.769531c-2.089844-.363281-3.953125-1.546875-5.167969-3.289063-1.21875-1.738281-1.695313-3.890624-1.328125-5.980468l16.679688-94.535156c.367187-2.09375 1.550781-3.953126 3.289062-5.171876 1.742188-1.21875 3.894531-1.695312 5.984375-1.324218l15.726563 2.773437zm33.375-189.0625 72.128906 12.6875c-.742187 3.027344-.863281 6.175782-.355469 9.253906l1.265626 7.203126-75.792969-13.371094zm-6.402344-37.296875c3.074219-2.28125 6.941407-3.207031 10.714844-2.570312l140.144531 24.699219-53.152344 9.34375c-3.421874.601562-6.664062 1.96875-9.480468 4l-9.175782-1.601563-73.832031-13.023437c-3.136719-.53125-5.925781-2.296876-7.746093-4.902344-1.675782-2.394532-2.425782-5.3125-2.101563-8.21875.382813-3.105469 2.050781-5.90625 4.597656-7.726563zm-54.75 245.871094c-13.058593-2.324219-21.769531-14.777344-19.472656-27.839844l19.457031-110.296875c2.339844-13.023437 14.753906-21.714844 27.792969-19.464844l23.605469 4.171876-1.390625 7.886718-15.722657-2.777344c-13.050781-2.304687-25.503906 6.410157-27.804687 19.464844l-16.664063 94.527344c-2.300781 13.050781 6.414063 25.496094 19.460938 27.800781l15.738281 2.777344-1.390625 7.878906zm37.953125 14.945313c0-.050782 4.214844-23.761719 4.214844-23.761719l29.136719-165.40625 65.839843 11.574219 2.75 15.449218c.265626 1.414063.652344 2.804688 1.160157 4.152344-1.554688 1.199219-2.613281 2.925781-2.976563 4.855469l-27.78125 157.601562c-.765625 4.347657 2.136719 8.496094 6.488282 9.261719.457031.085938.921874.128906 1.390624.128906 3.878907-.003906 7.195313-2.789062 7.871094-6.609375l26.816406-152.0625c2.097657 1.050781 4.34375 1.785157 6.65625 2.175781l5.855469 32.894532c.621094 3.332031 1.941407 6.492187 3.878907 9.273437l.1875.289063-16.984376 95.855468c-.765624 4.347657 2.136719 8.496094 6.488282 9.261719.460937.085938.929687.125 1.398437.121094 3.878907-.003906 7.195313-2.789063 7.871094-6.609375l12.199219-68.992188 16.226562 92-3.839844 21.914063-157.601562-27.800781zm-24 44.367187 2.757813-15.761719 187.03125 32.984375.105469.601563-7.886719 1.390625c-4.351563.769531-7.253907 4.914062-6.488281 9.265625l.460937 2.605468zm384.527344 16-189.105469 33.3125-1.777343-10.097656v-.117188l-.972657-5.546875 189.039063-33.34375zm-178.898438-.953125-26.398437-149.726562c13.019531-2.3125 21.714844-14.71875 19.449219-27.746094l-1.601563-9.246094c4.027344.660156 8.15625.289062 12-1.082031.230469-.085938.457031-.175781.6875-.277344.234375-.105469 1.144531-.480469 1.433594-.617187.691406-.292969 1.355469-.644532 1.984375-1.054688 1.9375-1.109375 3.683594-2.523438 5.175781-4.183594l.085938-.113281c.050781-.054687.113281-.105469.152343-.152344.183594-.199219.296876-.449219.464844-.65625 4.722656-5.394531 6.777344-12.621093 5.601563-19.695312l1.398437-.25 101.023438-17.78125 36.113281 204.800781zm0 0"/>
    <path d="m141.007812 219.371094c-2.089843-.378906-4.246093.089844-5.984374 1.308594-1.742188 1.214843-2.921876 3.078124-3.28125 5.171874l-22.230469 126.054688c-.765625 4.351562 2.144531 8.5 6.496093 9.265625.457032.085937.925782.128906 1.390626.128906 3.878906-.003906 7.199218-2.789062 7.875-6.609375l22.230468-126.054687c.765625-4.351563-2.144531-8.5-6.496094-9.265625zm0 0"/>
    <path d="m370.007812 48.003906c13.253907 0 24-10.746094 24-24s-10.746093-23.99999975-24-23.99999975c-13.253906 0-24 10.74609375-24 23.99999975s10.746094 24 24 24zm0-32c4.417969 0 8 3.582032 8 8 0 4.417969-3.582031 8-8 8-4.417968 0-8-3.582031-8-8 0-4.417968 3.582032-8 8-8zm0 0"/>
    <path d="m298.007812 104.003906c17.671876 0 32-14.328125 32-32s-14.328124-32-32-32c-17.671874 0-32 14.328125-32 32s14.328126 32 32 32zm0-48c8.835938 0 16 7.164063 16 16 0 8.835938-7.164062 16-16 16-8.835937 0-16-7.164062-16-16 0-8.835937 7.164063-16 16-16zm0 0"/>
    <path d="m146.007812 64.003906c17.671876 0 32-14.328125 32-32s-14.328124-31.99999975-32-31.99999975c-17.671874 0-32 14.32812475-32 31.99999975s14.328126 32 32 32zm0-48c8.835938 0 16 7.164063 16 16 0 8.835938-7.164062 16-16 16-8.835937 0-16-7.164062-16-16 0-8.835937 7.164063-16 16-16zm0 0"/>
    <path d="m218.007812 96.003906c13.253907 0 24-10.746094 24-24s-10.746093-24-24-24c-13.253906 0-24 10.746094-24 24s10.746094 24 24 24zm0-32c4.417969 0 8 3.582032 8 8 0 4.417969-3.582031 8-8 8-4.417968 0-8-3.582031-8-8 0-4.417968 3.582032-8 8-8zm0 0"/></g>
</svg>